<svg width="18" height="18" viewBox="0 0 18 18" fill="none" xmlns="http://www.w3.org/2000/svg">
<path d="M14.0608 11.4142L16.7306 14.084C16.816 14.1694 16.8837 14.2708 16.93 14.3823C16.9762 14.4939 17 14.6135 17 14.7343C17 14.8551 16.9762 14.9747 16.93 15.0862C16.8837 15.1978 16.816 15.2992 16.7306 15.3846C15.7917 16.3234 14.5456 16.892 13.2212 16.9861C11.8968 17.0802 10.5829 16.6934 9.52074 15.8968L7.93279 14.7051C6.17488 13.3867 4.61331 11.8251 3.29495 10.0672L2.10322 8.47926C1.30657 7.41707 0.919789 6.10317 1.01387 4.77877C1.10796 3.45437 1.6766 2.20834 2.6154 1.26944C2.70079 1.18402 2.80217 1.11626 2.91375 1.07003C3.02533 1.02379 3.14493 1 3.26571 1C3.38649 1 3.50608 1.02379 3.61767 1.07003C3.72925 1.11626 3.83063 1.18402 3.91601 1.26944L6.5858 3.93922C6.77481 4.12829 6.88099 4.38469 6.88099 4.65203C6.88099 4.91938 6.77481 5.17578 6.5858 5.36485L5.5564 6.39425C5.47646 6.47404 5.42369 6.57699 5.40559 6.68848C5.38749 6.79997 5.40498 6.91433 5.45558 7.01531C6.65187 9.40801 8.59199 11.3481 10.9847 12.5444C11.0857 12.595 11.2 12.6125 11.3115 12.5944C11.423 12.5763 11.526 12.5235 11.6058 12.4436L12.6341 11.4152C12.7278 11.3215 12.839 11.2471 12.9614 11.1964C13.0838 11.1456 13.215 11.1195 13.3475 11.1195C13.48 11.1195 13.6112 11.1456 13.7336 11.1964C13.856 11.2471 13.9671 11.3215 14.0608 11.4152V11.4142Z" stroke="#EEA600"/>
</svg>
