<svg width="10" height="10" viewBox="0 0 10 10" fill="none" xmlns="http://www.w3.org/2000/svg">
<path d="M9.41667 10C8.25926 10 7.11352 9.75 5.97944 9.25C4.84537 8.75 3.81519 8.03704 2.88889 7.11111C1.96296 6.18519 1.25 5.15741 0.75 4.02778C0.25 2.89815 0 1.75 0 0.583333V0H3.27778L3.79167 2.79167L2.20833 4.38889C2.41204 4.75 2.63889 5.09259 2.88889 5.41667C3.13889 5.74074 3.40741 6.04167 3.69444 6.31944C3.96296 6.58796 4.25704 6.845 4.57667 7.09056C4.8963 7.33611 5.24111 7.56519 5.61111 7.77778L7.22222 6.16667L10 6.73611V10H9.41667Z" fill="#FCFCFC"/>
</svg>
