<svg width="28" height="25" viewBox="0 0 28 25" fill="none" xmlns="http://www.w3.org/2000/svg">
<path d="M5.08491 8.17118L6.12395 14.9008C6.54364 17.619 8.82472 19.6202 11.5035 19.6202H20.4774C23.1561 19.6202 25.4372 17.619 25.8571 14.9008L26.8962 8.17118C26.8962 8.17118 26.6048 7.24242 26.1244 7.24242H5.85673C5.3763 7.24242 5.08491 8.17118 5.08491 8.17118ZM5.08491 8.17118L4.91886 7.09717C4.61211 5.10996 3.67642 3.28197 2.25683 1.89616L1.33887 1" stroke="#FCFCFC" stroke-width="2" stroke-miterlimit="10" stroke-linecap="round" stroke-linejoin="round"/>
<path d="M21.0758 25C22.0871 25 22.9068 24.1803 22.9068 23.169C22.9068 22.1578 22.0871 21.3381 21.0758 21.3381C20.0646 21.3381 19.2449 22.1578 19.2449 23.169C19.2449 24.1803 20.0646 25 21.0758 25Z" fill="#FCFCFC"/>
<path d="M10.725 25C11.7362 25 12.556 24.1803 12.556 23.169C12.556 22.1578 11.7362 21.3381 10.725 21.3381C9.71379 21.3381 8.89404 22.1578 8.89404 23.169C8.89404 24.1803 9.71379 25 10.725 25Z" fill="#FCFCFC"/>
</svg>
