<svg width="30" height="30" viewBox="0 0 30 30" fill="none" xmlns="http://www.w3.org/2000/svg">
<g opacity="0.3">
<path fill-rule="evenodd" clip-rule="evenodd" d="M0 12.4999C0 10.1986 1.86551 8.33313 4.16672 8.33313H17.5001C19.8013 8.33313 21.6669 10.1986 21.6669 12.4999V25.8333C21.6669 28.1345 19.8013 30 17.5001 30H4.16672C1.86551 30 0 28.1345 0 25.8333V12.4999ZM4.16672 9.99983C2.78596 9.99983 1.6667 11.1191 1.6667 12.4999V25.8333C1.6667 27.214 2.78596 28.3333 4.16672 28.3333H17.5001C18.8808 28.3333 20.0002 27.214 20.0002 25.8333V12.4999C20.0002 11.1191 18.8808 9.99983 17.5001 9.99983H4.16672Z" fill="#FCFCFC"/>
<path fill-rule="evenodd" clip-rule="evenodd" d="M8.33398 4.16672C8.33398 1.86551 10.1994 0 12.5006 0H25.8341C28.1353 0 30.0008 1.86551 30.0008 4.16672V17.5001C30.0008 19.8013 28.1353 21.6669 25.8341 21.6669H25.3212C24.8611 21.6669 24.4879 21.2937 24.4879 20.8335C24.4879 20.3733 24.8611 20.0002 25.3212 20.0002H25.8341C27.2148 20.0002 28.3341 18.8808 28.3341 17.5001V4.16672C28.3341 2.78596 27.2148 1.6667 25.8341 1.6667H12.5006C11.1199 1.6667 10.0006 2.78596 10.0006 4.16672V4.67954C10.0006 5.13979 9.62756 5.51286 9.1673 5.51286C8.70705 5.51286 8.33398 5.13979 8.33398 4.67954V4.16672Z" fill="#FCFCFC"/>
</g>
</svg>
