<svg width="34" height="34" viewBox="0 0 34 34" fill="none" xmlns="http://www.w3.org/2000/svg">
<g filter="url(#filter0_d_203_122)">
<rect x="4" y="4" width="26" height="26" rx="5" fill="#232323"/>
<rect x="4.5" y="4.5" width="25" height="25" rx="4.5" stroke="#EEA600"/>
</g>
<path d="M22.4174 14.7152L22.1597 22.5151C22.1378 23.1831 21.8564 23.8163 21.3752 24.2802C20.8941 24.7442 20.2511 25.0024 19.5827 25H14.6864C14.0185 25.0024 13.3758 24.7446 12.8948 24.2812C12.4137 23.8178 12.132 23.1853 12.1094 22.5177L11.8517 14.7152C11.8461 14.5443 11.9085 14.3782 12.0254 14.2534C12.1422 14.1286 12.3038 14.0553 12.4747 14.0496C12.6456 14.044 12.8117 14.1065 12.9365 14.2233C13.0613 14.3401 13.1346 14.5018 13.1402 14.6726L13.3979 22.4745C13.4107 22.8076 13.5521 23.1227 13.7924 23.3537C14.0327 23.5847 14.3531 23.7137 14.6864 23.7134H19.5827C19.9165 23.7136 20.2373 23.5844 20.4776 23.3528C20.7179 23.1212 20.859 22.8055 20.8712 22.4719L21.1289 14.6726C21.1346 14.5018 21.2078 14.3401 21.3326 14.2233C21.4575 14.1065 21.6236 14.044 21.7944 14.0496C21.9653 14.0553 22.1269 14.1286 22.2438 14.2534C22.3606 14.3782 22.4231 14.5443 22.4174 14.7152ZM23.2698 12.1195C23.2698 12.2903 23.2019 12.4542 23.0811 12.575C22.9602 12.6958 22.7964 12.7637 22.6255 12.7637H11.6443C11.4734 12.7637 11.3095 12.6958 11.1887 12.575C11.0679 12.4542 11 12.2903 11 12.1195C11 11.9486 11.0679 11.7847 11.1887 11.6639C11.3095 11.5431 11.4734 11.4752 11.6443 11.4752H13.6414C13.8456 11.4758 14.0426 11.4004 14.1942 11.2636C14.3458 11.1269 14.4411 10.9387 14.4616 10.7356C14.5091 10.2592 14.7323 9.81752 15.0877 9.49666C15.4431 9.17581 15.9052 8.99876 16.384 9.00001H17.8851C18.3639 8.99876 18.826 9.17581 19.1814 9.49666C19.5368 9.81752 19.76 10.2592 19.8076 10.7356C19.828 10.9387 19.9233 11.1269 20.0749 11.2636C20.2265 11.4004 20.4236 11.4758 20.6277 11.4752H22.6249C22.7957 11.4752 22.9596 11.5431 23.0804 11.6639C23.2012 11.7847 23.2691 11.9486 23.2691 12.1195H23.2698ZM15.58 11.4752H18.6904C18.6058 11.2818 18.5504 11.0768 18.5261 10.867C18.5102 10.7082 18.4358 10.561 18.3175 10.4539C18.1992 10.3468 18.0454 10.2874 17.8858 10.2872H16.3847C16.225 10.2874 16.0712 10.3468 15.9529 10.4539C15.8346 10.561 15.7602 10.7082 15.7443 10.867C15.7198 11.0768 15.6649 11.2818 15.58 11.4752ZM16.2287 21.2363V15.7505C16.2287 15.5796 16.1609 15.4157 16.04 15.2949C15.9192 15.1741 15.7554 15.1062 15.5845 15.1062C15.4136 15.1062 15.2498 15.1741 15.1289 15.2949C15.0081 15.4157 14.9402 15.5796 14.9402 15.7505V21.2388C14.9402 21.4097 15.0081 21.5736 15.1289 21.6944C15.2498 21.8152 15.4136 21.8831 15.5845 21.8831C15.7554 21.8831 15.9192 21.8152 16.04 21.6944C16.1609 21.5736 16.2287 21.4097 16.2287 21.2388V21.2363ZM19.3302 21.2363V15.7505C19.3302 15.5796 19.2623 15.4157 19.1415 15.2949C19.0206 15.1741 18.8568 15.1062 18.6859 15.1062C18.5151 15.1062 18.3512 15.1741 18.2304 15.2949C18.1095 15.4157 18.0417 15.5796 18.0417 15.7505V21.2388C18.0417 21.4097 18.1095 21.5736 18.2304 21.6944C18.3512 21.8152 18.5151 21.8831 18.6859 21.8831C18.8568 21.8831 19.0206 21.8152 19.1415 21.6944C19.2623 21.5736 19.3302 21.4097 19.3302 21.2388V21.2363Z" fill="#EEA600"/>
<defs>
<filter id="filter0_d_203_122" x="0" y="0" width="34" height="34" filterUnits="userSpaceOnUse" color-interpolation-filters="sRGB">
<feFlood flood-opacity="0" result="BackgroundImageFix"/>
<feColorMatrix in="SourceAlpha" type="matrix" values="0 0 0 0 0 0 0 0 0 0 0 0 0 0 0 0 0 0 127 0" result="hardAlpha"/>
<feMorphology radius="1" operator="dilate" in="SourceAlpha" result="effect1_dropShadow_203_122"/>
<feOffset/>
<feGaussianBlur stdDeviation="1.5"/>
<feComposite in2="hardAlpha" operator="out"/>
<feColorMatrix type="matrix" values="0 0 0 0 0.988235 0 0 0 0 0.988235 0 0 0 0 0.988235 0 0 0 0.2 0"/>
<feBlend mode="normal" in2="BackgroundImageFix" result="effect1_dropShadow_203_122"/>
<feBlend mode="normal" in="SourceGraphic" in2="effect1_dropShadow_203_122" result="shape"/>
</filter>
</defs>
</svg>
