<svg width="443" height="124" viewBox="0 0 443 124" fill="none" xmlns="http://www.w3.org/2000/svg">
<g filter="url(#filter0_d_283_451)">
<rect x="12" y="12" width="419" height="100" rx="10" fill="#232323"/>
</g>
<path d="M48.8781 92V81.8182H52.8952C53.6641 81.8182 54.3203 81.9557 54.8639 82.2308C55.4108 82.5026 55.8267 82.8887 56.1118 83.3892C56.4001 83.8864 56.5443 84.4714 56.5443 85.1442C56.5443 85.8203 56.3985 86.402 56.1068 86.8892C55.8151 87.3731 55.3925 87.7443 54.839 88.0028C54.2889 88.2614 53.6227 88.3906 52.8405 88.3906H50.1508V86.6605H52.4925C52.9034 86.6605 53.2448 86.6042 53.5166 86.4915C53.7884 86.3788 53.9906 86.2098 54.1231 85.9844C54.259 85.759 54.327 85.4789 54.327 85.1442C54.327 84.8061 54.259 84.5211 54.1231 84.2891C53.9906 84.0571 53.7867 83.8814 53.5116 83.7621C53.2398 83.6394 52.8968 83.5781 52.4825 83.5781H51.0308V92H48.8781ZM54.3767 87.3665L56.9072 92H54.5308L52.055 87.3665H54.3767ZM58.0656 92V81.8182H64.9264V83.593H60.2183V86.0192H64.5734V87.794H60.2183V90.2251H64.9463V92H58.0656ZM75.6215 85.3828H73.444C73.4042 85.1011 73.323 84.8509 73.2004 84.6321C73.0777 84.41 72.9203 84.2211 72.7281 84.0653C72.5358 83.9096 72.3138 83.7902 72.0619 83.7074C71.8133 83.6245 71.5432 83.5831 71.2515 83.5831C70.7245 83.5831 70.2655 83.714 69.8744 83.9759C69.4833 84.2344 69.18 84.6122 68.9646 85.1094C68.7491 85.6032 68.6414 86.2031 68.6414 86.9091C68.6414 87.6349 68.7491 88.2448 68.9646 88.7386C69.1833 89.2325 69.4883 89.6054 69.8794 89.8572C70.2704 90.1091 70.7229 90.2351 71.2366 90.2351C71.5249 90.2351 71.7918 90.197 72.037 90.1207C72.2856 90.0445 72.506 89.9335 72.6982 89.7876C72.8905 89.6385 73.0496 89.4579 73.1755 89.2457C73.3048 89.0336 73.3943 88.7917 73.444 88.5199L75.6215 88.5298C75.5652 88.9972 75.4243 89.4479 75.199 89.8821C74.9769 90.313 74.6769 90.6991 74.2991 91.0405C73.9246 91.3786 73.4771 91.647 72.9568 91.8459C72.4397 92.0414 71.8547 92.1392 71.2018 92.1392C70.2936 92.1392 69.4816 91.9337 68.7657 91.5227C68.0531 91.1117 67.4897 90.5168 67.0754 89.7379C66.6644 88.959 66.4589 88.0161 66.4589 86.9091C66.4589 85.7988 66.6677 84.8542 67.0853 84.0753C67.5029 83.2964 68.0697 82.7031 68.7856 82.2955C69.5015 81.8845 70.3069 81.679 71.2018 81.679C71.7918 81.679 72.3386 81.7618 72.8424 81.9276C73.3495 82.0933 73.7986 82.3352 74.1897 82.6534C74.5808 82.9683 74.899 83.3544 75.1443 83.8118C75.3928 84.2692 75.5519 84.7929 75.6215 85.3828ZM77.1652 92V81.8182H84.026V83.593H79.3179V86.0192H83.673V87.794H79.3179V90.2251H84.0459V92H77.1652ZM87.8902 81.8182V92H85.7375V81.8182H87.8902ZM91.5008 81.8182L93.9617 89.554H94.0562L96.5221 81.8182H98.9085L95.3985 92H92.6244L89.1095 81.8182H91.5008ZM100.134 92V81.8182H106.995V83.593H102.287V86.0192H106.642V87.794H102.287V90.2251H107.015V92H100.134ZM112.316 92H108.706V81.8182H112.345C113.37 81.8182 114.251 82.022 114.99 82.4297C115.729 82.834 116.298 83.4157 116.696 84.1747C117.097 84.9337 117.297 85.8419 117.297 86.8991C117.297 87.9598 117.097 88.8712 116.696 89.6335C116.298 90.3958 115.726 90.9808 114.98 91.3885C114.238 91.7962 113.35 92 112.316 92ZM110.859 90.1555H112.226C112.862 90.1555 113.398 90.0429 113.832 89.8175C114.269 89.5888 114.598 89.2358 114.816 88.7585C115.038 88.2779 115.149 87.6581 115.149 86.8991C115.149 86.1468 115.038 85.532 114.816 85.0547C114.598 84.5774 114.271 84.2261 113.837 84.0007C113.403 83.7753 112.867 83.6626 112.231 83.6626H110.859V90.1555Z" fill="#EEA600"/>
<circle cx="83" cy="48" r="19" stroke="#EEA600" stroke-width="2"/>
<path fill-rule="evenodd" clip-rule="evenodd" d="M73.3984 48L75.7984 45.6L80.5984 50.4L90.1984 40.8L92.5984 43.2L80.5984 55.2L73.3984 48Z" fill="#EEA600" stroke="#EEA600" stroke-linecap="round" stroke-linejoin="round"/>
<g opacity="0.3">
<path d="M226 33L220 39L221.415 40.402L225 36.818V53H213V42H211V53C211 54.103 211.897 55 213 55H225C226.103 55 227 54.103 227 53V36.815L230.586 40.402L232 39L226 33Z" fill="#FCFCFC"/>
<path d="M221.5 51H216.5C215.673 51 215 50.327 215 49.5V44.5C215 43.673 215.673 43 216.5 43H221.5C222.327 43 223 43.673 223 44.5V49.5C223 50.327 222.327 51 221.5 51ZM217 49H221V45H217V49ZM219 63V61C226.168 61 232 55.168 232 48C232 46.735 231.819 45.486 231.462 44.285L233.379 43.715C233.79 45.1 234 46.542 234 48C234 56.271 227.271 63 219 63ZM204.621 52.285C204.208 50.8942 203.999 49.4508 204 48C204 39.729 210.729 33 219 33V35C211.832 35 206 40.832 206 48C206 49.265 206.181 50.514 206.538 51.715L204.621 52.285Z" fill="#FCFCFC"/>
</g>
<path opacity="0.3" d="M195.86 84.4929C195.807 84.0223 195.589 83.6577 195.204 83.3991C194.82 83.1373 194.336 83.0064 193.752 83.0064C193.335 83.0064 192.974 83.0727 192.669 83.2053C192.364 83.3345 192.127 83.5135 191.958 83.7422C191.792 83.9676 191.709 84.2244 191.709 84.5128C191.709 84.7547 191.765 84.9635 191.878 85.1392C191.994 85.3149 192.145 85.4624 192.331 85.5817C192.519 85.6977 192.722 85.7955 192.937 85.875C193.152 85.9512 193.36 86.0142 193.559 86.0639L194.553 86.3224C194.878 86.402 195.211 86.5097 195.552 86.6456C195.893 86.7815 196.21 86.9605 196.502 87.1825C196.793 87.4046 197.029 87.6797 197.208 88.0078C197.39 88.3359 197.481 88.7287 197.481 89.1861C197.481 89.7628 197.332 90.2749 197.034 90.7223C196.739 91.1697 196.309 91.5227 195.746 91.7812C195.186 92.0398 194.508 92.169 193.713 92.169C192.95 92.169 192.291 92.0481 191.734 91.8061C191.177 91.5642 190.741 91.2211 190.426 90.777C190.112 90.3295 189.938 89.7992 189.904 89.1861H191.446C191.475 89.554 191.595 89.8606 191.804 90.1058C192.016 90.3478 192.286 90.5284 192.614 90.6477C192.945 90.7637 193.308 90.8217 193.703 90.8217C194.137 90.8217 194.523 90.7538 194.861 90.6179C195.202 90.4787 195.471 90.2865 195.666 90.0412C195.862 89.7926 195.96 89.5026 195.96 89.1712C195.96 88.8696 195.874 88.6226 195.701 88.4304C195.532 88.2382 195.302 88.0791 195.01 87.9531C194.722 87.8272 194.395 87.7161 194.031 87.62L192.828 87.2919C192.012 87.0698 191.366 86.7434 190.889 86.3125C190.415 85.8816 190.178 85.3116 190.178 84.6023C190.178 84.0156 190.337 83.5036 190.655 83.0661C190.973 82.6286 191.404 82.2888 191.948 82.0469C192.491 81.8016 193.104 81.679 193.787 81.679C194.477 81.679 195.085 81.8 195.612 82.0419C196.142 82.2839 196.56 82.617 196.865 83.0412C197.17 83.4621 197.329 83.946 197.342 84.4929H195.86ZM199.317 92V81.8182H200.853V86.2429H205.929V81.8182H207.47V92H205.929V87.5604H200.853V92H199.317ZM211.244 81.8182V92H209.707V81.8182H211.244ZM213.481 92V81.8182H217.11C217.902 81.8182 218.559 81.9624 219.079 82.2507C219.599 82.5391 219.989 82.9335 220.247 83.4339C220.506 83.9311 220.635 84.4912 220.635 85.1143C220.635 85.7408 220.504 86.3042 220.242 86.8047C219.984 87.3018 219.593 87.6963 219.069 87.9879C218.549 88.2763 217.894 88.4205 217.105 88.4205H214.609V87.1179H216.966C217.466 87.1179 217.872 87.0317 218.184 86.8594C218.496 86.6837 218.724 86.4451 218.87 86.1435C219.016 85.8419 219.089 85.4988 219.089 85.1143C219.089 84.7299 219.016 84.3885 218.87 84.0902C218.724 83.7919 218.494 83.5582 218.179 83.3892C217.868 83.2202 217.457 83.1357 216.946 83.1357H215.017V92H213.481ZM222.436 92V81.8182H226.065C226.857 81.8182 227.514 81.9624 228.034 82.2507C228.554 82.5391 228.944 82.9335 229.202 83.4339C229.461 83.9311 229.59 84.4912 229.59 85.1143C229.59 85.7408 229.459 86.3042 229.197 86.8047C228.939 87.3018 228.548 87.6963 228.024 87.9879C227.504 88.2763 226.849 88.4205 226.06 88.4205H223.565V87.1179H225.921C226.422 87.1179 226.828 87.0317 227.139 86.8594C227.451 86.6837 227.679 86.4451 227.825 86.1435C227.971 85.8419 228.044 85.4988 228.044 85.1143C228.044 84.7299 227.971 84.3885 227.825 84.0902C227.679 83.7919 227.449 83.5582 227.134 83.3892C226.823 83.2202 226.412 83.1357 225.901 83.1357H223.972V92H222.436ZM231.391 92V81.8182H237.775V83.1406H232.927V86.2429H237.441V87.5604H232.927V90.6776H237.834V92H231.391ZM243.123 92H239.827V81.8182H243.227C244.225 81.8182 245.082 82.022 245.797 82.4297C246.513 82.834 247.062 83.4157 247.443 84.1747C247.828 84.9304 248.02 85.8369 248.02 86.8942C248.02 87.9548 247.826 88.8662 247.438 89.6286C247.054 90.3909 246.497 90.9775 245.768 91.3885C245.039 91.7962 244.157 92 243.123 92ZM241.363 90.6577H243.038C243.814 90.6577 244.458 90.5118 244.972 90.2202C245.486 89.9252 245.87 89.4993 246.126 88.9425C246.381 88.3823 246.508 87.6996 246.508 86.8942C246.508 86.0954 246.381 85.4176 246.126 84.8608C245.874 84.304 245.498 83.8814 244.997 83.593C244.497 83.3047 243.875 83.1605 243.133 83.1605H241.363V90.6577Z" fill="#FCFCFC"/>
<path opacity="0.3" d="M324.407 92H321.111V81.8182H324.511C325.509 81.8182 326.366 82.022 327.082 82.4297C327.798 82.834 328.346 83.4157 328.727 84.1747C329.112 84.9304 329.304 85.8369 329.304 86.8942C329.304 87.9548 329.11 88.8662 328.722 89.6286C328.338 90.3909 327.781 90.9775 327.052 91.3885C326.323 91.7962 325.441 92 324.407 92ZM322.647 90.6577H324.322C325.098 90.6577 325.743 90.5118 326.256 90.2202C326.77 89.9252 327.155 89.4993 327.41 88.9425C327.665 88.3823 327.793 87.6996 327.793 86.8942C327.793 86.0954 327.665 85.4176 327.41 84.8608C327.158 84.304 326.782 83.8814 326.281 83.593C325.781 83.3047 325.159 83.1605 324.417 83.1605H322.647V90.6577ZM331.214 92V81.8182H337.598V83.1406H332.751V86.2429H337.265V87.5604H332.751V90.6776H337.657V92H331.214ZM339.65 92V81.8182H341.186V90.6776H345.8V92H339.65ZM349.088 81.8182V92H347.552V81.8182H349.088ZM352.216 81.8182L355.049 90.1108H355.164L357.998 81.8182H359.658L355.994 92H354.219L350.555 81.8182H352.216ZM361.128 92V81.8182H367.512V83.1406H362.665V86.2429H367.179V87.5604H362.665V90.6776H367.572V92H361.128ZM369.564 92V81.8182H373.193C373.982 81.8182 374.637 81.9541 375.157 82.2259C375.681 82.4976 376.072 82.8738 376.33 83.3544C376.589 83.8317 376.718 84.3835 376.718 85.0099C376.718 85.633 376.587 86.1816 376.325 86.6555C376.067 87.1262 375.676 87.4924 375.152 87.7543C374.632 88.0161 373.977 88.147 373.188 88.147H370.439V86.8246H373.049C373.546 86.8246 373.951 86.7533 374.262 86.6108C374.577 86.4683 374.807 86.2611 374.953 85.9893C375.099 85.7176 375.172 85.3911 375.172 85.0099C375.172 84.6255 375.097 84.2924 374.948 84.0107C374.802 83.7289 374.572 83.5135 374.257 83.3643C373.946 83.2119 373.536 83.1357 373.029 83.1357H371.1V92H369.564ZM374.59 87.4062L377.106 92H375.356L372.89 87.4062H374.59ZM378.587 92V81.8182H384.971V83.1406H380.124V86.2429H384.638V87.5604H380.124V90.6776H385.031V92H378.587ZM390.319 92H387.023V81.8182H390.423C391.421 81.8182 392.278 82.022 392.994 82.4297C393.71 82.834 394.258 83.4157 394.639 84.1747C395.024 84.9304 395.216 85.8369 395.216 86.8942C395.216 87.9548 395.022 88.8662 394.634 89.6286C394.25 90.3909 393.693 90.9775 392.964 91.3885C392.235 91.7962 391.353 92 390.319 92ZM388.559 90.6577H390.235C391.01 90.6577 391.655 90.5118 392.169 90.2202C392.682 89.9252 393.067 89.4993 393.322 88.9425C393.577 88.3823 393.705 87.6996 393.705 86.8942C393.705 86.0954 393.577 85.4176 393.322 84.8608C393.07 84.304 392.694 83.8814 392.193 83.593C391.693 83.3047 391.071 83.1605 390.329 83.1605H388.559V90.6577Z" fill="#FCFCFC"/>
<path opacity="0.3" d="M371.501 33C372.323 33 373 33.665 373 34.499V49.0009C373 49.8408 372.323 50.499 371.501 50.499H356.331C355.558 51.123 354.568 51.499 353.501 51.499C351.002 51.499 349.001 49.4793 349.001 47C349.001 46.1982 349.21 45.4419 349.58 44.789L348.646 43.8554C348.329 43.5381 348.558 42.9864 349.016 43.0009C349.146 43.0047 349.261 43.0535 349.351 43.1465L350.174 43.9668C350.998 43.0638 352.186 42.5009 353.501 42.5009V34.499C353.501 33.6767 354.165 33 354.999 33H371.501ZM371.501 34.001H366.002V38.5C366.002 38.8865 365.582 39.1271 365.249 38.9316L363.248 37.7803L361.248 38.9316C360.915 39.1237 360.499 38.8842 360.498 38.5V34.001H354.999C354.713 34.001 354.501 34.227 354.501 34.499V42.6133C356.516 43.0741 358 44.8649 358 47C358 47.9239 357.722 48.7834 357.242 49.499H371.501C371.775 49.499 371.999 49.2866 371.999 49.0009V34.499C371.999 34.2231 371.787 34.001 371.501 34.001ZM365.002 34.001H361.499V37.6357L363.001 36.7725C363.155 36.6838 363.345 36.6838 363.499 36.7725L365.002 37.6357V34.001ZM353.501 43.5009C352.456 43.5009 351.523 43.9565 350.883 44.6777L353.501 47.2919L355.146 45.6455C355.632 45.1943 356.304 45.8603 355.855 46.3544L353.854 48.3544C353.659 48.5503 353.342 48.5503 353.146 48.3544L350.324 45.5332C350.118 45.9793 350.002 46.4748 350.002 47C350.002 48.9389 351.569 50.499 353.501 50.499C355.44 50.499 356.999 48.9291 356.999 47C356.999 45.0728 355.44 43.5009 353.501 43.5009ZM370 44.499C370.25 44.499 370.501 44.6658 370.5 45V47.4999C370.501 48.168 369.499 48.168 369.5 47.4999V45C369.499 44.6659 369.75 44.499 370 44.499ZM368 44.499C368.25 44.499 368.501 44.6658 368.5 45V47.4999C368.501 48.168 367.499 48.168 367.5 47.4999V45C367.499 44.6659 367.75 44.499 368 44.499ZM366 44.499C366.25 44.499 366.501 44.6658 366.5 45V47.4999C366.501 48.168 365.499 48.168 365.5 47.4999V45C365.499 44.6659 365.749 44.499 366 44.499ZM363.839 59.2352C362.492 60.1419 361.074 61.0544 359.838 61.7528C358.601 62.4511 357.499 62.9661 356.811 62.9998C356.802 63.0001 356.794 63.0001 356.785 62.9998C355.788 62.9998 354.496 62.644 353.352 62.3026C352.78 62.1317 352.24 61.9614 351.799 61.8377C351.357 61.7141 351.039 61.6454 350.884 61.6454H348.992C348.945 62.3994 348.346 62.9998 347.594 62.9998H344.981C344.197 62.9998 343.629 62.3543 343.575 61.5897L343.003 53.4813C342.946 52.6598 343.626 52.0008 344.41 52.0008H347.594C348.395 52.0008 349.001 52.6663 349.001 53.4481V53.4999H350.935L353.153 52.5507C353.215 52.5242 353.282 52.5108 353.349 52.5106H360.535C361.539 52.5106 362.382 53.2244 362.54 54.1854L366.666 51.7948C367.063 51.5643 367.504 51.4694 367.933 51.4989C368.075 51.5084 368.217 51.5322 368.354 51.5693C368.905 51.7174 369.399 52.0789 369.704 52.6103C370.319 53.6802 369.892 54.9949 368.914 55.6425C368.914 55.6425 366.532 57.4218 363.839 59.2352ZM367.866 52.495C367.631 52.478 367.387 52.5289 367.164 52.6582L362.302 55.4794C361.95 56.0866 361.29 56.5009 360.535 56.5009H355.575C354.908 56.5009 354.908 55.4999 355.575 55.4999H360.535C361.128 55.4999 361.572 55.0364 361.572 54.5077C361.572 53.9791 361.128 53.5107 360.535 53.5107H353.452L351.23 54.4589C351.168 54.4854 351.102 54.4998 351.035 54.4999H349.001V60.6454H350.883C351.188 60.6454 351.602 60.7435 352.068 60.8739C352.534 61.0043 353.073 61.1746 353.636 61.3427C354.757 61.6773 355.935 61.996 356.77 61.996C357.22 61.9709 358.149 61.5559 359.343 60.8818C360.54 60.2057 361.943 59.3035 363.277 58.4052C365.946 56.6087 368.364 54.8085 368.364 54.8085C368.951 54.3809 369.172 53.6923 368.836 53.1083C368.626 52.7433 368.258 52.524 367.866 52.495ZM347.594 53.0019H344.41C344.187 53.0019 343.984 53.1863 344 53.4111L344.572 61.5165C344.594 61.8258 344.786 61.9999 344.981 61.9999H347.594C347.804 61.9999 348.001 61.8206 348.001 61.5536V53.4482C348.001 53.1812 347.808 53.0019 347.594 53.0019ZM346.074 59.9999C346.35 59.9999 346.574 60.2238 346.574 60.4999C346.574 60.7761 346.35 60.9999 346.074 60.9999C345.798 60.9999 345.574 60.776 345.574 60.4999C345.574 60.2238 345.798 59.9999 346.074 59.9999Z" fill="#FCFCFC"/>
<path d="M112 48H192" stroke="#EEA600" stroke-width="0.8" stroke-linecap="round"/>
<path opacity="0.3" d="M249 48H329" stroke="#FCFCFC" stroke-width="0.8" stroke-linecap="round"/>
<defs>
<filter id="filter0_d_283_451" x="0" y="0" width="443" height="124" filterUnits="userSpaceOnUse" color-interpolation-filters="sRGB">
<feFlood flood-opacity="0" result="BackgroundImageFix"/>
<feColorMatrix in="SourceAlpha" type="matrix" values="0 0 0 0 0 0 0 0 0 0 0 0 0 0 0 0 0 0 127 0" result="hardAlpha"/>
<feMorphology radius="2" operator="dilate" in="SourceAlpha" result="effect1_dropShadow_283_451"/>
<feOffset/>
<feGaussianBlur stdDeviation="5"/>
<feComposite in2="hardAlpha" operator="out"/>
<feColorMatrix type="matrix" values="0 0 0 0 0.988235 0 0 0 0 0.988235 0 0 0 0 0.988235 0 0 0 0.2 0"/>
<feBlend mode="normal" in2="BackgroundImageFix" result="effect1_dropShadow_283_451"/>
<feBlend mode="normal" in="SourceGraphic" in2="effect1_dropShadow_283_451" result="shape"/>
</filter>
</defs>
</svg>
